<mxfile host="Electron" agent="Mozilla/5.0 (Windows NT 10.0; Win64; x64) AppleWebKit/537.36 (KHTML, like Gecko) draw.io/27.0.9 Chrome/134.0.6998.205 Electron/35.4.0 Safari/537.36" version="27.0.9">
  <diagram name="Page-1" id="kWq_Ob3qmGybuWMb_GS3">
    <mxGraphModel dx="834" dy="578" grid="1" gridSize="10" guides="1" tooltips="1" connect="1" arrows="1" fold="1" page="1" pageScale="1" pageWidth="850" pageHeight="1100" math="0" shadow="0">
      <root>
        <mxCell id="0" />
        <mxCell id="1" parent="0" />
        <mxCell id="DY_-um4JcaVVxiuo4IQc-1" value="Frontend(UI)&lt;div&gt;Browser/Mobile app&lt;/div&gt;" style="rounded=0;whiteSpace=wrap;html=1;" vertex="1" parent="1">
          <mxGeometry x="30" y="180" width="120" height="50" as="geometry" />
        </mxCell>
        <mxCell id="DY_-um4JcaVVxiuo4IQc-9" value="" style="edgeStyle=none;orthogonalLoop=1;jettySize=auto;html=1;rounded=0;" edge="1" parent="1">
          <mxGeometry width="100" relative="1" as="geometry">
            <mxPoint x="150" y="199.47" as="sourcePoint" />
            <mxPoint x="190" y="200" as="targetPoint" />
            <Array as="points" />
          </mxGeometry>
        </mxCell>
        <mxCell id="DY_-um4JcaVVxiuo4IQc-10" value="Backend&lt;div&gt;(Flask)&lt;/div&gt;" style="rounded=0;whiteSpace=wrap;html=1;" vertex="1" parent="1">
          <mxGeometry x="190" y="180" width="120" height="50" as="geometry" />
        </mxCell>
        <mxCell id="DY_-um4JcaVVxiuo4IQc-11" value="" style="edgeStyle=none;orthogonalLoop=1;jettySize=auto;html=1;rounded=0;" edge="1" parent="1">
          <mxGeometry width="100" relative="1" as="geometry">
            <mxPoint x="310" y="199.47" as="sourcePoint" />
            <mxPoint x="440" y="199" as="targetPoint" />
            <Array as="points">
              <mxPoint x="360" y="199.47" />
            </Array>
          </mxGeometry>
        </mxCell>
        <mxCell id="DY_-um4JcaVVxiuo4IQc-13" value="" style="edgeStyle=segmentEdgeStyle;endArrow=classic;html=1;curved=0;rounded=0;endSize=8;startSize=8;sourcePerimeterSpacing=0;targetPerimeterSpacing=0;" edge="1" parent="1">
          <mxGeometry width="100" relative="1" as="geometry">
            <mxPoint x="220" y="230" as="sourcePoint" />
            <mxPoint x="400" y="320" as="targetPoint" />
            <Array as="points">
              <mxPoint x="270" y="230" />
              <mxPoint x="270" y="320" />
              <mxPoint x="320" y="320" />
            </Array>
          </mxGeometry>
        </mxCell>
        <mxCell id="DY_-um4JcaVVxiuo4IQc-14" value="Notification gateway" style="rounded=0;whiteSpace=wrap;html=1;" vertex="1" parent="1">
          <mxGeometry x="400" y="310" width="120" height="40" as="geometry" />
        </mxCell>
        <mxCell id="DY_-um4JcaVVxiuo4IQc-15" value="TMDb API" style="rounded=0;whiteSpace=wrap;html=1;" vertex="1" parent="1">
          <mxGeometry x="450" y="180" width="110" height="40" as="geometry" />
        </mxCell>
        <mxCell id="DY_-um4JcaVVxiuo4IQc-16" value="" style="edgeStyle=segmentEdgeStyle;endArrow=classic;html=1;curved=0;rounded=0;endSize=8;startSize=8;sourcePerimeterSpacing=0;targetPerimeterSpacing=0;exitX=0.667;exitY=0;exitDx=0;exitDy=0;exitPerimeter=0;" edge="1" parent="1" source="DY_-um4JcaVVxiuo4IQc-10">
          <mxGeometry width="100" relative="1" as="geometry">
            <mxPoint x="270.05" y="140" as="sourcePoint" />
            <mxPoint x="430" y="70" as="targetPoint" />
            <Array as="points">
              <mxPoint x="270" y="70" />
            </Array>
          </mxGeometry>
        </mxCell>
        <mxCell id="DY_-um4JcaVVxiuo4IQc-17" value="Database&lt;div&gt;(PostgreSQL)&lt;/div&gt;" style="rounded=0;whiteSpace=wrap;html=1;" vertex="1" parent="1">
          <mxGeometry x="430" y="50" width="120" height="40" as="geometry" />
        </mxCell>
        <mxCell id="DY_-um4JcaVVxiuo4IQc-18" value="" style="edgeStyle=segmentEdgeStyle;endArrow=classic;html=1;curved=0;rounded=0;endSize=8;startSize=8;sourcePerimeterSpacing=0;targetPerimeterSpacing=0;" edge="1" parent="1">
          <mxGeometry width="100" relative="1" as="geometry">
            <mxPoint x="430" y="350" as="sourcePoint" />
            <mxPoint x="640" y="390" as="targetPoint" />
            <Array as="points">
              <mxPoint x="480" y="350" />
              <mxPoint x="480" y="390" />
              <mxPoint x="500" y="390" />
            </Array>
          </mxGeometry>
        </mxCell>
        <mxCell id="DY_-um4JcaVVxiuo4IQc-20" value="" style="edgeStyle=segmentEdgeStyle;endArrow=classic;html=1;curved=0;rounded=0;endSize=8;startSize=8;sourcePerimeterSpacing=0;targetPerimeterSpacing=0;exitX=0.583;exitY=0;exitDx=0;exitDy=0;exitPerimeter=0;" edge="1" parent="1" source="DY_-um4JcaVVxiuo4IQc-14">
          <mxGeometry width="100" relative="1" as="geometry">
            <mxPoint x="470" y="270" as="sourcePoint" />
            <mxPoint x="640" y="270" as="targetPoint" />
            <Array as="points">
              <mxPoint x="470" y="270" />
            </Array>
          </mxGeometry>
        </mxCell>
        <mxCell id="DY_-um4JcaVVxiuo4IQc-21" value="Mailgun" style="rounded=0;whiteSpace=wrap;html=1;" vertex="1" parent="1">
          <mxGeometry x="640" y="250" width="100" height="40" as="geometry" />
        </mxCell>
        <mxCell id="DY_-um4JcaVVxiuo4IQc-22" value="Redis + celery" style="rounded=0;whiteSpace=wrap;html=1;" vertex="1" parent="1">
          <mxGeometry x="640" y="380" width="110" height="40" as="geometry" />
        </mxCell>
        <mxCell id="DY_-um4JcaVVxiuo4IQc-23" value="" style="edgeStyle=none;orthogonalLoop=1;jettySize=auto;html=1;rounded=0;" edge="1" parent="1">
          <mxGeometry width="100" relative="1" as="geometry">
            <mxPoint x="520" y="329.52" as="sourcePoint" />
            <mxPoint x="620" y="329.52" as="targetPoint" />
            <Array as="points" />
          </mxGeometry>
        </mxCell>
        <mxCell id="DY_-um4JcaVVxiuo4IQc-24" value="Twilio" style="rounded=0;whiteSpace=wrap;html=1;" vertex="1" parent="1">
          <mxGeometry x="630" y="310" width="110" height="40" as="geometry" />
        </mxCell>
      </root>
    </mxGraphModel>
  </diagram>
</mxfile>
